<?xml version="1.0" encoding="UTF-8"?>
<!DOCTYPE svg PUBLIC "-//W3C//DTD SVG 1.1//EN" "http://www.w3.org/Graphics/SVG/1.1/DTD/svg11.dtd">
<svg xmlns="http://www.w3.org/2000/svg" version="1.1" width="300px" height="300px" style="shape-rendering:geometricPrecision; text-rendering:geometricPrecision; image-rendering:optimizeQuality; fill-rule:evenodd; clip-rule:evenodd" xmlns:xlink="http://www.w3.org/1999/xlink">
<g><path style="opacity:1" fill="#fefefe" d="M -0.5,-0.5 C 99.5,-0.5 199.5,-0.5 299.5,-0.5C 299.5,99.5 299.5,199.5 299.5,299.5C 199.5,299.5 99.5,299.5 -0.5,299.5C -0.5,199.5 -0.5,99.5 -0.5,-0.5 Z"/></g>
<g><path style="opacity:1" fill="#7d7d7d" d="M 137.5,124.5 C 145.352,124.175 153.018,124.508 160.5,125.5C 159.833,125.5 159.5,125.833 159.5,126.5C 152.833,126.5 146.167,126.5 139.5,126.5C 138.5,126.167 137.833,125.5 137.5,124.5 Z"/></g>
<g><path style="opacity:1" fill="#faf9f9" d="M 139.5,126.5 C 146.167,126.5 152.833,126.5 159.5,126.5C 159.666,131.511 159.499,136.511 159,141.5C 157.426,140.016 156.093,138.349 155,136.5C 153.955,137.373 153.122,138.373 152.5,139.5C 147.833,135.5 143.5,131.167 139.5,126.5 Z"/></g>
<g><path style="opacity:1" fill="#c82f1a" d="M 137.5,124.5 C 137.833,125.5 138.5,126.167 139.5,126.5C 143.5,131.167 147.833,135.5 152.5,139.5C 155.195,142.526 157.862,145.526 160.5,148.5C 160.591,150.698 159.925,151.031 158.5,149.5C 153.833,144.5 149.167,139.5 144.5,134.5C 142.833,132.167 140.833,130.167 138.5,128.5C 138.5,127.833 138.167,127.5 137.5,127.5C 137.047,126.542 136.381,125.708 135.5,125C 136.094,124.536 136.761,124.369 137.5,124.5 Z"/></g>
<g><path style="opacity:1" fill="#ede7e6" d="M 138.5,128.5 C 140.833,130.167 142.833,132.167 144.5,134.5C 142.164,136.004 140.331,138.004 139,140.5C 138.501,136.514 138.334,132.514 138.5,128.5 Z"/></g>
<g><path style="opacity:1" fill="#464646" d="M 155.5,131.5 C 157.337,131.639 157.67,132.306 156.5,133.5C 155.702,133.043 155.369,132.376 155.5,131.5 Z"/></g>
<g><path style="opacity:1" fill="#262626" d="M 137.5,127.5 C 138.167,127.5 138.5,127.833 138.5,128.5C 138.334,132.514 138.501,136.514 139,140.5C 140.331,138.004 142.164,136.004 144.5,134.5C 149.167,139.5 153.833,144.5 158.5,149.5C 151.5,149.5 144.5,149.5 137.5,149.5C 137.5,142.167 137.5,134.833 137.5,127.5 Z"/></g>
<g><path style="opacity:1" fill="#2f2d2c" d="M 160.5,125.5 C 160.5,133.167 160.5,140.833 160.5,148.5C 157.862,145.526 155.195,142.526 152.5,139.5C 153.122,138.373 153.955,137.373 155,136.5C 156.093,138.349 157.426,140.016 159,141.5C 159.499,136.511 159.666,131.511 159.5,126.5C 159.5,125.833 159.833,125.5 160.5,125.5 Z"/></g>
</svg>
